<svg id="eEsjloXC57x1" xmlns="http://www.w3.org/2000/svg" xmlns:xlink="http://www.w3.org/1999/xlink" viewBox="0 0 1000 1000" shape-rendering="geometricPrecision" text-rendering="geometricPrecision"><ellipse rx="500" ry="500" transform="translate(500 500)" fill="#fe7d4e" stroke-width="0"/><ellipse rx="450" ry="450" transform="translate(500 500)" fill="#fff" stroke-width="0"/><g transform="matrix(.14 0 0-.14 95.558781 805.9)"><path d="M2397,4133c-4-3-7-85-7-182v-176l-73-27c-117-44-248-132-340-228-94-98-146-181-184-295-25-74-27-92-28-245c0-190,11-244,78-380c32-66,59-103,122-166c91-92,179-148,322-204l98-39l3-580c1-320-1-581-6-581-4,0-25,12-47,27-191,127-300,309-331,551-6,46-9,52-30,52-39,0-328-21-340-25-15-5,1-140,31-255c31-115,116-291,184-381c109-143,278-275,449-349l87-37l3-192l2-191h145h145v153v152h235h235v-152-153h145h145l2,187l3,186l65,22c213,72,407,224,512,401c113,189,157,458,107,649-62,240-226,429-474,550-60,29-134,61-162,70l-53,17v499c0,332,3,499,10,499c6,0,39-29,74-64c95-95,140-198,162-370l6-48l36,6c20,3,104,6,186,6h149l-6,88c-23,340-229,633-555,786l-62,30v198v198h-145-145v-161-161l-27,6c-16,3-121,9-235,12l-208,7v149v148h-138c-76,0-142-3-145-7Zm713-690l35-9l3-522c1-350-1-522-8-522-19,0-186,40-320,78l-135,37-3,465c-1,256,0,471,3,479c5,11,39,13,198,8c105-3,208-10,227-14Zm-720-463c0-209-4-380-8-380-5,0-37,17-73,39-122,73-169,167-169,339c0,97,3,113,28,167c16,33,42,75,58,94c30,36,139,121,155,121c5,0,9-165,9-380Zm416-899c55-16,123-34,153-40c29-6,84-18,122-27l69-16v-534c0-500-1-535-17-542-24-9-391-9-425,1l-28,7v590c0,493,2,590,14,590c7,0,58-13,112-29Zm833-297c112-104,150-224,121-392-16-96-59-182-127-253-53-56-156-129-182-129-8,0-11,125-11,450v450l69-35c38-19,96-60,130-91Z" fill="#fe7d4e"/></g></svg>
