<svg id="ehGyjbNT7FJ1" xmlns="http://www.w3.org/2000/svg" xmlns:xlink="http://www.w3.org/1999/xlink" viewBox="0 0 1000 1000" shape-rendering="geometricPrecision" text-rendering="geometricPrecision"><ellipse rx="500" ry="500" transform="translate(500 500)" fill="#fe7d4e" stroke-width="0"/><ellipse rx="450" ry="450" transform="translate(500 500)" fill="#fff" stroke-width="0"/><g transform="matrix(.22 0 0-.22-165.750553 964.213897)"><path d="M3000,3335c-379-69-637-330-744-752-14-56-26-111-26-122c0-19-7-20-102-23l-102-3-33-84c-18-47-33-88-33-93c0-4,54-9,121-10l121-3l1-132l2-132-88-3-89-3-34-84c-19-47-34-88-34-93c0-4,60-8,134-8h133l18-87c79-399,285-667,595-775c298-103,753-61,975,92l45,31v125v125l-63-45c-137-98-271-147-454-167-343-37-629,106-767,384-45,90-96,246-96,293v24h473h474l32,83c18,45,35,88,38,94c4,10-107,13-523,15l-529,3v130v130l582,3l581,2l30,78c17,42,33,85,37,95c7,16-25,17-594,17h-601v23c0,39,39,176,70,244c67,148,189,277,325,344c112,54,180,70,330,76c151,6,256-10,391-59c78-28,222-111,238-137c19-30,26-1,26,108v120l-32,24c-89,67-251,128-408,153-106,17-321,17-420-1Z" fill="#fe7d4e"/></g></svg>
