<svg id="eEncC0fQJW81" xmlns="http://www.w3.org/2000/svg" xmlns:xlink="http://www.w3.org/1999/xlink" viewBox="0 0 1000 1000" shape-rendering="geometricPrecision" text-rendering="geometricPrecision"><ellipse rx="473.176" ry="445.659" transform="matrix(1.05669 0 0 1.12193 500 500)" fill="#fe7d4e" stroke="#fff"/><ellipse rx="487.069" ry="466.844" transform="matrix(.923894 0 0 0.96392 500 500)" fill="#fff" stroke-width="0"/><g transform="matrix(.1 0 0-.1 108.067 820)"><path d="M2122,3203l3-2798l378-3l377-2v1185v1185h460c577,0,696-12,899-90c205-79,375-247,561-555c39-66,253-481,473-922l402-803h403c221,0,402,2,402,6c0,12-818,1639-886,1761-240,434-478,703-728,824-44,21-73,41-65,43c8,3,48,17,89,32c407,144,689,454,794,874c66,261,72,584,16,872-126,652-552,1027-1301,1147-230,37-344,41-1322,41h-957l2-2797ZM4147,5357c270-49,484-165,608-328c147-194,213-498,175-809-57-465-324-729-822-811-48-8-266-13-650-16l-578-5v997v996l588-4c493-3,602-6,679-20Z" fill="#fe7d4e"/></g></svg>
